<?xml version="1.0" encoding="utf-8"?>
<!-- Generator: Adobe Illustrator 24.1.2, SVG Export Plug-In . SVG Version: 6.00 Build 0)  -->
<svg version="1.1" xmlns="http://www.w3.org/2000/svg" xmlns:xlink="http://www.w3.org/1999/xlink" x="0px" y="0px"
	 viewBox="0 0 1455.53 611.29" style="enable-background:new 0 0 1455.53 611.29;" xml:space="preserve">
<style type="text/css">
	.st0{fill:#FFFFFF;}
	.st1{fill:#FFADAE;stroke:#FFADAE;stroke-width:7;stroke-miterlimit:10;}
	.st2{fill:#2AC59C;stroke:#2AC59C;stroke-width:8;stroke-miterlimit:10;}
	.st3{fill:#513D27;}
	.st4{fill:#A76243;}
	.st5{fill:#B5EBF3;}
	.st6{fill:#1D7561;}
	.st7{fill:#258972;}
	.st8{fill:#F4F8FF;}
	.st9{fill:#2AC5B8;stroke:#2AC5B8;stroke-width:7;stroke-miterlimit:10;}
	.st10{fill:#FFADAE;stroke:#FFADAE;stroke-width:8;stroke-miterlimit:10;}
	.st11{opacity:0.6;fill:#277C6C;}
	.st12{fill:#E8BE33;}
	.st13{opacity:0.8;fill:#A66744;}
	.st14{opacity:0.6;fill:#DFE6E4;}
	.st15{fill:#DB7E7D;}
	.st16{fill:#0B5F4C;}
	.st17{opacity:0.25;fill:#105E6C;}
	.st18{fill:#6FAF5D;}
	.st19{fill:#513D42;}
	.st20{fill:#4A7E86;}
</style>
<g id="flag">
	<g id="pole">
		<polygon class="st0" points="107.94,258.95 113.94,258.95 114.12,437.96 107.94,437.96 		"/>
	</g>
	<polygon class="st1" points="112.79,258.95 112.79,221.54 89.07,209.68 42.91,229.3 	"/>
	<g id="top">
		<polygon class="st2" points="112.79,219.45 112.79,160.16 46.44,186.28 		"/>
	</g>
</g>
<g id="hills_copy">
	<g id="house1">
		<polygon class="st3" points="733.38,83.97 763.86,61.75 772.19,69.16 772.19,61.75 783.37,61.75 783.37,76.91 792.52,83.97 		"/>
		<polygon class="st4" points="739.88,83.97 740.7,129.19 786.42,129.19 786.42,83.97 		"/>
		<rect x="770.37" y="108.62" class="st3" width="12.19" height="19.07"/>
		<rect x="744.56" y="89.08" class="st5" width="13.62" height="13.51"/>
		<rect x="744.56" y="110.94" class="st5" width="13.62" height="11.11"/>
		<rect x="767.93" y="89.08" class="st5" width="13.62" height="13.51"/>
	</g>
	<g id="Layer_26_copy">
		<path class="st6" d="M1094.41,448.89H366.82c0,0,62.09-324,344.93-331.41S1095.34,431.95,1094.41,448.89z"/>
		<path class="st7" d="M1358.12,1063.06"/>
	</g>
</g>
<g id="hills_copy_2">
	<g id="Layer_26">
		<path class="st8" d="M1448.07,611.29H463.64c0,0,84.01-276.47,466.7-282.8c39.32-0.65,213.88,1.26,301.71,49.58
			C1378.93,458.89,1448.65,604.73,1448.07,611.29z"/>
		<path class="st7" d="M1358.12,1063.06"/>
		<path class="st8" d="M2064,715.76"/>
	</g>
	<g id="clowd">
	</g>
	<g id="Layer_26_copy_2">
		<path class="st7" d="M910.32,611.29H16.94c0,0,76.24-324,423.53-331.41S911.47,594.35,910.32,611.29z"/>
		<path class="st7" d="M1358.12,1063.06"/>
	</g>
</g>
<g id="flag_copy">
	<g id="pole_copy">
		<polygon class="st0" points="1318.9,257.29 1325.91,257.29 1326.12,455.65 1318.9,455.65 		"/>
	</g>
	<polygon class="st9" points="1324.86,257.29 1324.86,220.66 1302.32,209.04 1258.44,228.26 	"/>
	<g id="top_copy">
		<polygon class="st10" points="1324.86,223.59 1324.86,165.53 1261.8,191.11 		"/>
	</g>
</g>
<g id="hills">
</g>
<g id="tree1">
	<g id="shadow">
		<path class="st11" d="M153.88,441.41c0,0-5.88,10.59,23.65,10.35c28.82-0.24,22.35-12.24,22.35-12.24s-0.59-6.59-16.12-7.53
			s-15.06,0-15.06,0S156,432.94,153.88,441.41z"/>
	</g>
	<g id="leaves">
		<polygon class="st12" points="203.53,413.65 176.24,304 151.53,413.65 		"/>
	</g>
	<g id="trunk">
		<polygon class="st13" points="178.07,441.41 178.07,405.65 188.9,394.59 186.07,391.76 178.07,399.29 178.07,388.94 188.9,377.76 
			186.1,375.21 178.43,382.62 178.43,367.09 174.37,367.09 173.93,390.38 167.75,383.5 166.16,387.21 173.84,394.97 174.28,441.41 
					"/>
	</g>
</g>
<g id="tree1_copy_2">
	<g id="shadow_copy_2">
		<path class="st11" d="M293.66,385.13c0,0-5.13,10.03,20.61,9.81c25.12-0.22,19.48-11.59,19.48-11.59s-0.51-6.24-14.05-7.13
			c-13.53-0.89-13.12,0-13.12,0S295.5,377.1,293.66,385.13z"/>
	</g>
	<g id="leaves_copy_2">
		<path class="st14" d="M1147.22,506.47c0,0-6.44,12.21,25.88,11.93c31.54-0.27,24.46-14.1,24.46-14.1s-0.64-7.59-17.64-8.68
			c-16.99-1.08-16.48,0-16.48,0S1149.54,496.7,1147.22,506.47z"/>
		<path class="st14" d="M1216.77,431.9c0,0-4.81,9.13,19.35,8.92c23.58-0.2,18.29-10.55,18.29-10.55s-0.48-5.68-13.19-6.49
			c-12.71-0.81-12.32,0-12.32,0S1218.5,424.6,1216.77,431.9z"/>
		<path class="st14" d="M1075.31,397.79c0,0-4.81,9.13,19.35,8.92c23.58-0.2,18.29-10.55,18.29-10.55s-0.48-5.68-13.19-6.49
			c-12.71-0.81-12.32,0-12.32,0S1077.04,390.48,1075.31,397.79z"/>
		<polygon class="st15" points="339.76,362.82 312.47,259.76 287.76,362.82 		"/>
		<polygon class="st12" points="1261.65,405.88 1234.35,296.24 1209.65,405.88 		"/>
		<polygon class="st13" points="1236.19,433.65 1236.19,397.88 1247.01,386.82 1244.19,384 1236.19,391.53 1236.19,381.18 
			1247.01,370 1244.22,367.44 1236.54,374.85 1236.54,359.32 1232.49,359.32 1232.04,382.62 1225.87,375.74 1224.28,379.44 
			1231.96,387.21 1232.4,433.65 		"/>
		<polygon class="st15" points="1121.65,376.9 1094.41,279.88 1069.76,376.9 		"/>
		<polygon class="st13" points="1096.25,400.24 1096.25,366.57 1107.05,356.16 1104.23,353.5 1096.25,360.59 1096.25,350.84 
			1107.05,340.32 1104.26,337.91 1096.6,344.89 1096.6,330.27 1092.55,330.27 1092.11,352.2 1085.95,345.72 1084.36,349.21 
			1092.02,356.52 1092.46,400.24 		"/>
		<polygon class="st16" points="1206.59,488.65 1171.64,364.94 1140,488.65 		"/>
		<polygon class="st13" points="1174.43,508.54 1174.43,472.77 1185.25,461.71 1182.43,458.89 1174.43,466.42 1174.43,456.06 
			1185.25,444.89 1182.46,442.33 1174.78,449.74 1174.78,434.21 1170.72,434.21 1170.28,457.51 1164.1,450.62 1162.51,454.33 
			1170.19,462.09 1170.63,508.54 		"/>
	</g>
	<g id="trunk_copy_2">
		<polygon class="st13" points="314.31,387.62 314.31,351.85 325.13,340.79 322.31,337.97 314.31,345.5 314.31,335.15 
			325.13,323.97 322.34,321.41 314.66,328.82 314.66,313.29 310.6,313.29 310.16,336.59 303.99,329.71 302.4,333.41 310.07,341.18 
			310.51,387.62 		"/>
	</g>
</g>
<g id="tree1_copy">
	<g id="shadow_copy">
		<path class="st11" d="M224.99,409.34c0,0-6.44,12.21,25.87,11.93c31.54-0.27,24.46-14.1,24.46-14.1s-0.64-7.59-17.64-8.68
			s-16.48,0-16.48,0S227.31,399.58,224.99,409.34z"/>
		<path class="st17" d="M606.7,189.88c0,0-5.97,11.24,24.02,10.99c29.28-0.25,22.7-12.98,22.7-12.98s-0.6-6.99-16.37-7.99
			c-15.77-1-15.29,0-15.29,0S608.85,180.89,606.7,189.88z"/>
		<path class="st17" d="M872.42,217.72c0,0-4.78,9.13,19.22,8.92c23.43-0.2,18.17-10.55,18.17-10.55s-0.48-5.68-13.1-6.49
			c-12.63-0.81-12.24,0-12.24,0S874.14,210.42,872.42,217.72z"/>
	</g>
	<g id="leaves_copy">
		<polygon class="st16" points="279.53,383.06 248.78,243.53 220.94,383.06 		"/>
		<polygon class="st18" points="659.96,162.23 628.03,30.01 600.31,162.51 		"/>
		<polygon class="st16" points="916.41,199.85 889.92,88.19 865.94,199.85 		"/>
	</g>
	<g id="trunk_copy">
		<polygon class="st13" points="250.78,409.65 250.78,373.88 261.6,362.82 258.78,360 250.78,367.53 250.78,357.18 261.6,346 
			258.81,343.44 251.13,350.85 251.13,335.32 247.07,335.32 246.63,358.62 240.46,351.74 238.87,355.44 246.54,363.21 
			246.99,409.65 		"/>
		<polygon class="st13" points="630.64,189.14 630.64,156.21 640.68,146.03 638.06,143.43 630.64,150.36 630.64,140.83 
			640.68,130.54 638.09,128.19 630.96,135.01 630.96,120.71 627.2,120.71 626.79,142.16 621.05,135.82 619.58,139.24 626.71,146.38 
			627.12,189.14 		"/>
		<polygon class="st13" points="891.58,217.95 891.58,191.21 899.62,182.94 897.52,180.83 891.58,186.46 891.58,178.71 
			899.62,170.36 897.55,168.44 891.84,173.99 891.84,162.37 888.83,162.37 888.5,179.79 883.91,174.65 882.73,177.42 888.43,183.22 
			888.76,217.95 		"/>
	</g>
</g>
<g id="house">
	<g id="roof">
		<polygon class="st19" points="353.88,252.94 389.18,223.29 398.82,233.18 398.82,223.29 411.76,223.29 411.76,243.53 
			422.35,252.94 		"/>
	</g>
	<g id="wall">
		<polygon class="st20" points="361.41,252.94 362.35,313.29 415.29,313.29 415.29,252.94 		"/>
	</g>
	<g id="door">
		<rect x="396.71" y="288.94" class="st19" width="14.12" height="22.35"/>
	</g>
	<g id="window">
		<rect x="366.82" y="259.76" class="st5" width="15.76" height="17.88"/>
		<rect x="366.82" y="288.94" class="st5" width="15.76" height="17.85"/>
		<rect x="393.88" y="259.76" class="st5" width="15.76" height="17.88"/>
	</g>
</g>
</svg>
